<?xml version="1.0" encoding="UTF-8"?>
<svg version="1.1" xmlns="http://www.w3.org/2000/svg" width="318" height="318">
<path d="M0 0 C0.88429688 -0.03738281 1.76859375 -0.07476562 2.6796875 -0.11328125 C5.125 0.3125 5.125 0.3125 6.9453125 2.20703125 C8.125 4.3125 8.125 4.3125 8.125 6.3125 C8.785 6.3125 9.445 6.3125 10.125 6.3125 C10.434375 5.508125 10.74375 4.70375 11.0625 3.875 C12.125 1.3125 12.125 1.3125 13.125 0.3125 C16.02359085 0.18647431 18.89701724 0.12380419 21.796875 0.109375 C22.67144348 0.10367493 23.54601196 0.09797485 24.44708252 0.09210205 C26.30325098 0.08263497 28.15943638 0.07611132 30.015625 0.07226562 C32.84926001 0.06258791 35.68216129 0.03159263 38.515625 0 C40.31770402 -0.00653261 42.11978824 -0.01178207 43.921875 -0.015625 C44.76788269 -0.0279718 45.61389038 -0.0403186 46.48553467 -0.05303955 C51.16677409 -0.03541734 54.35780986 0.20563467 58.125 3.3125 C59.0625 5.8125 59.0625 5.8125 59.125 8.3125 C58.465 9.3025 57.805 10.2925 57.125 11.3125 C57.62 11.6425 58.115 11.9725 58.625 12.3125 C60.66541957 15.03305943 60.60898347 17.10614333 60.48046875 20.44140625 C60.125 22.3125 60.125 22.3125 58.375 24.25 C53.76545035 26.42673178 49.6498179 26.44744588 44.5625 26.4375 C43.89025391 26.44136719 43.21800781 26.44523437 42.52539062 26.44921875 C39.45000248 26.44311073 37.06473687 26.29241229 34.125 25.3125 C33.795 23.6625 33.465 22.0125 33.125 20.3125 C32.63 22.7875 32.63 22.7875 32.125 25.3125 C24.375 26.4375 24.375 26.4375 22.125 25.3125 C21.795 18.3825 21.465 11.4525 21.125 4.3125 C18.6242909 9.68059976 18.6242909 9.68059976 16.12963867 15.05151367 C14.30982107 18.93831883 12.43097968 22.68258247 10.125 26.3125 C8.28173828 26.06738281 8.28173828 26.06738281 6.125 25.3125 C4.78466797 23.53417969 4.78466797 23.53417969 3.6171875 21.234375 C3.18792969 20.40292969 2.75867188 19.57148438 2.31640625 18.71484375 C1.88199219 17.83957031 1.44757813 16.96429688 1 16.0625 C0.55785156 15.20269531 0.11570312 14.34289062 -0.33984375 13.45703125 C-2.37591963 9.46484621 -4.25028892 5.49191009 -5.875 1.3125 C-4.21607528 -0.34642472 -2.27452582 0.06263187 0 0 Z M32.125 2.3125 C33.125 4.3125 33.125 4.3125 33.125 4.3125 Z M44.125 8.3125 C44.455 9.3025 44.785 10.2925 45.125 11.3125 C46.115 10.6525 47.105 9.9925 48.125 9.3125 C48.125 8.6525 48.125 7.9925 48.125 7.3125 C46.0504644 7.1634288 46.0504644 7.1634288 44.125 8.3125 Z M46.125 15.3125 C45.465 16.6325 44.805 17.9525 44.125 19.3125 C45.775 18.6525 47.425 17.9925 49.125 17.3125 C49.125 16.6525 49.125 15.9925 49.125 15.3125 C48.135 15.3125 47.145 15.3125 46.125 15.3125 Z " fill="#7C8AD4" transform="translate(125.875,143.6875)"/>
<path d="M0 0 C1.72476563 0.03673828 1.72476563 0.03673828 3.484375 0.07421875 C6.25 0.3125 6.25 0.3125 7.25 1.3125 C7.29092937 3.64547433 7.29241723 5.97955225 7.25 8.3125 C5.6 8.6425 3.95 8.9725 2.25 9.3125 C3.054375 9.89 3.85875 10.4675 4.6875 11.0625 C7.22866739 13.29376893 7.90120368 14.05706771 8.25 17.3125 C10.56 17.3125 12.87 17.3125 15.25 17.3125 C14.7446875 16.94898438 14.239375 16.58546875 13.71875 16.2109375 C8.45143885 12.13504197 8.45143885 12.13504197 7.5 8.25 C8.58462038 4.00190351 9.51137605 2.71086253 13.25 0.3125 C17.6181321 -0.15799648 21.87887441 -0.11967343 26.25 0.3125 C27.25 1.3125 27.25 1.3125 27.3125 4.875 C27.291875 6.009375 27.27125 7.14375 27.25 8.3125 C25.6 8.6425 23.95 8.9725 22.25 9.3125 C23.013125 9.704375 23.77625 10.09625 24.5625 10.5 C27.49716071 12.47918978 28.65126898 14.1991817 30.25 17.3125 C31.178125 17.10625 32.10625 16.9 33.0625 16.6875 C36.25 16.3125 36.25 16.3125 39.25 18.3125 C39.806875 17.961875 40.36375 17.61125 40.9375 17.25 C43.78886783 16.09404007 45.33517222 16.50282562 48.25 17.3125 C49.58157895 22.75986842 49.58157895 22.75986842 48.125 25.1875 C45.64049995 26.67820003 44.10510892 26.66938862 41.25 26.3125 C40.26 25.6525 39.27 24.9925 38.25 24.3125 C37.59 24.9725 36.93 25.6325 36.25 26.3125 C29.78846154 25.85096154 29.78846154 25.85096154 27.25 23.3125 C26.63125 23.8075 26.0125 24.3025 25.375 24.8125 C21.04219521 26.8922463 16.98868587 26.90579888 12.25 26.3125 C8.50407166 24.82064332 8.50407166 24.82064332 7.25 22.3125 C6.816875 22.786875 6.38375 23.26125 5.9375 23.75 C2.98330564 26.48536514 0.08759571 26.44892142 -3.75 26.4375 C-5.049375 26.44136719 -5.049375 26.44136719 -6.375 26.4453125 C-8.75 26.3125 -8.75 26.3125 -11.75 25.3125 C-11.75 22.6725 -11.75 20.0325 -11.75 17.3125 C-9.44 17.3125 -7.13 17.3125 -4.75 17.3125 C-5.719375 16.673125 -6.68875 16.03375 -7.6875 15.375 C-10.75 13.3125 -10.75 13.3125 -11.75 12.3125 C-12.31381487 6.58038219 -12.31381487 6.58038219 -11.75 4.3125 C-8.03981341 0.35404814 -5.31897612 -0.1744913 0 0 Z " fill="#7B89D2" transform="translate(218.75,143.6875)"/>
<path d="M0 0 C0.67474365 0.00008057 1.3494873 0.00016113 2.04467773 0.00024414 C4.09249942 -0.00193311 6.1397744 -0.02005866 8.1875 -0.0390625 C9.47849609 -0.04099609 10.76949219 -0.04292969 12.09960938 -0.04492188 C13.28723877 -0.04903076 14.47486816 -0.05313965 15.69848633 -0.05737305 C18.67841509 0.1761122 20.34433113 0.52722119 22.79882812 2.18554688 C24.00504401 4.59797865 23.92804202 6.14171292 23.93164062 8.83398438 C23.93357422 10.2184375 23.93357422 10.2184375 23.93554688 11.63085938 C23.93167969 12.59765625 23.9278125 13.56445312 23.92382812 14.56054688 C23.92962891 15.99914062 23.92962891 15.99914062 23.93554688 17.46679688 C23.93425781 18.39234375 23.93296875 19.31789062 23.93164062 20.27148438 C23.9305127 21.11759277 23.92938477 21.96370117 23.92822266 22.83544922 C23.80269988 25.1152271 23.55563917 27.03136183 22.79882812 29.18554688 C19.84072337 30.66459925 16.84411263 30.3074559 13.60351562 30.28320312 C12.89607208 30.28178818 12.18862854 30.28037323 11.45974731 30.27891541 C9.19773144 30.27331288 6.93581414 30.26076005 4.67382812 30.24804688 C3.14127747 30.2430322 1.60872527 30.23846923 0.07617188 30.234375 C-3.68298076 30.22334264 -7.4420596 30.20607639 -11.20117188 30.18554688 C-7.94392267 26.27012195 -4.72875668 22.54505818 -0.82617188 19.24804688 C-0.1378125 18.66152344 0.55054687 18.075 1.25976562 17.47070312 C1.76765625 17.04660156 2.27554688 16.6225 2.79882812 16.18554688 C1.49930841 12.28698773 -0.41935512 11.19736749 -3.63867188 8.68554688 C-6.74742296 6.25366858 -9.00568929 4.47877075 -11.20117188 1.18554688 C-8.87537753 -1.14024747 -3.0946047 0.01394664 0 0 Z M8.79882812 13.18554688 C9.12882812 14.83554688 9.45882812 16.48554688 9.79882812 18.18554688 C12.19602244 18.8651329 12.19602244 18.8651329 14.79882812 19.18554688 C15.45882812 18.52554688 16.11882812 17.86554688 16.79882812 17.18554688 C16.47841415 14.58274119 16.47841415 14.58274119 15.79882812 12.18554688 C12.31300957 10.98354048 12.11890468 10.9721625 8.79882812 13.18554688 Z " fill="#7886CD" transform="translate(89.201171875,143.814453125)"/>
<path d="M0 0 C2.949375 -0.020625 5.89875 -0.04125 8.9375 -0.0625 C9.86812256 -0.071604 10.79874512 -0.08070801 11.75756836 -0.09008789 C12.48596924 -0.09258545 13.21437012 -0.09508301 13.96484375 -0.09765625 C14.7137085 -0.10289307 15.46257324 -0.10812988 16.23413086 -0.11352539 C18 0 18 0 19 1 C19.04241723 3.33294775 19.04092937 5.66702567 19 8 C19 8.66 19 9.32 19 10 C19 12 19 14 19 16 C16.36 16 13.72 16 11 16 C11 16.66 11 17.32 11 18 C13.64 18 16.28 18 19 18 C19 20.31 19 22.62 19 25 C12.73 25 6.46 25 0 25 C0 16.75 0 8.5 0 0 Z " fill="#7D8BD8" transform="translate(187,144)"/>
<path d="M0 0 C1.6874269 0.00015917 3.37485866 0.00585622 5.06225586 0.01586914 C6.39189613 0.01799156 6.39189613 0.01799156 7.74839783 0.02015686 C10.59133215 0.02577324 13.43418892 0.03832848 16.27709961 0.05102539 C18.19962452 0.05603828 20.12215065 0.06060155 22.04467773 0.06469727 C26.7680151 0.07574798 31.49129419 0.09302356 36.21459961 0.11352539 C36.21459961 0.44352539 36.21459961 0.77352539 36.21459961 1.11352539 C34.9500293 1.16250977 33.68545898 1.21149414 32.38256836 1.26196289 C30.72239014 1.33699919 29.06223497 1.41254666 27.40209961 1.48852539 C26.5687207 1.51946289 25.7353418 1.55040039 24.87670898 1.58227539 C24.07426758 1.62094727 23.27182617 1.65961914 22.44506836 1.69946289 C21.33748169 1.74659424 21.33748169 1.74659424 20.20751953 1.79467773 C17.90110373 2.02187153 17.90110373 2.02187153 15.21459961 4.11352539 C16.20459961 4.11352539 17.19459961 4.11352539 18.21459961 4.11352539 C18.21459961 11.04352539 18.21459961 17.97352539 18.21459961 25.11352539 C17.88459961 25.11352539 17.55459961 25.11352539 17.21459961 25.11352539 C16.71959961 22.63852539 16.71959961 22.63852539 16.21459961 20.11352539 C15.88459961 21.76352539 15.55459961 23.41352539 15.21459961 25.11352539 C7.46459961 26.23852539 7.46459961 26.23852539 5.21459961 25.11352539 C4.88459961 18.18352539 4.55459961 11.25352539 4.21459961 4.11352539 C3.55459961 4.77352539 2.89459961 5.43352539 2.21459961 6.11352539 C2.21459961 4.46352539 2.21459961 2.81352539 2.21459961 1.11352539 C0.56459961 1.11352539 -1.08540039 1.11352539 -2.78540039 1.11352539 C-2.88852539 1.75290039 -2.99165039 2.39227539 -3.09790039 3.05102539 C-3.32477539 3.73165039 -3.55165039 4.41227539 -3.78540039 5.11352539 C-4.77540039 5.44352539 -5.76540039 5.77352539 -6.78540039 6.11352539 C-4.48578686 0.13453021 -4.48578686 0.13453021 0 0 Z " fill="#6C7BB8" transform="translate(142.785400390625,143.886474609375)"/>
<path d="M0 0 C1.47668858 0.0133035 2.95331108 0.03716415 4.4296875 0.0703125 C5.18378906 0.07933594 5.93789062 0.08835938 6.71484375 0.09765625 C8.57826004 0.1212438 10.44151343 0.15711531 12.3046875 0.1953125 C12.3046875 0.8553125 12.3046875 1.5153125 12.3046875 2.1953125 C12.9646875 2.5253125 13.6246875 2.8553125 14.3046875 3.1953125 C14.3046875 4.5153125 14.3046875 5.8353125 14.3046875 7.1953125 C13.3146875 7.6903125 13.3146875 7.6903125 12.3046875 8.1953125 C11.6446875 7.8653125 10.9846875 7.5353125 10.3046875 7.1953125 C10.3046875 6.5353125 10.3046875 5.8753125 10.3046875 5.1953125 C8.6546875 4.8653125 7.0046875 4.5353125 5.3046875 4.1953125 C4.62267594 9.56615356 4.18947485 14.78031809 4.3046875 20.1953125 C4.9028125 19.8446875 5.5009375 19.4940625 6.1171875 19.1328125 C8.3046875 18.1953125 8.3046875 18.1953125 11.3046875 19.1953125 C9.3246875 20.5153125 7.3446875 21.8353125 5.3046875 23.1953125 C7.6146875 23.5253125 9.9246875 23.8553125 12.3046875 24.1953125 C12.3046875 24.5253125 12.3046875 24.8553125 12.3046875 25.1953125 C10.01308431 25.22223734 7.72139204 25.24167374 5.4296875 25.2578125 C4.15351563 25.26941406 2.87734375 25.28101563 1.5625 25.29296875 C-1.6953125 25.1953125 -1.6953125 25.1953125 -3.6953125 24.1953125 C-3.6953125 17.2653125 -3.6953125 10.3353125 -3.6953125 3.1953125 C-4.3553125 2.8653125 -5.0153125 2.5353125 -5.6953125 2.1953125 C-3.6953125 0.1953125 -3.6953125 0.1953125 0 0 Z M10.3046875 13.1953125 C10.9646875 13.1953125 11.6246875 13.1953125 12.3046875 13.1953125 C12.6346875 14.5153125 12.9646875 15.8353125 13.3046875 17.1953125 C12.3146875 17.6903125 12.3146875 17.6903125 11.3046875 18.1953125 C10.9746875 16.5453125 10.6446875 14.8953125 10.3046875 13.1953125 Z " fill="#7C8AD7" transform="translate(164.6953125,144.8046875)"/>
<path d="M0 0 C1.00023193 0.00523682 2.00046387 0.01047363 3.03100586 0.01586914 C4.1105957 0.0190918 5.19018555 0.02231445 6.30249023 0.02563477 C8.00695312 0.03820312 8.00695312 0.03820312 9.74584961 0.05102539 C11.45611328 0.05779297 11.45611328 0.05779297 13.20092773 0.06469727 C16.02845312 0.07652792 18.85587601 0.09301129 21.68334961 0.11352539 C21.68334961 0.77352539 21.68334961 1.43352539 21.68334961 2.11352539 C21.02334961 2.11352539 20.36334961 2.11352539 19.68334961 2.11352539 C19.68334961 3.10352539 19.68334961 4.09352539 19.68334961 5.11352539 C21.00334961 4.78352539 22.32334961 4.45352539 23.68334961 4.11352539 C24.67334961 5.59852539 24.67334961 5.59852539 25.68334961 7.11352539 C25.35334961 8.10352539 25.02334961 9.09352539 24.68334961 10.11352539 C23.69334961 9.45352539 22.70334961 8.79352539 21.68334961 8.11352539 C22.01334961 9.76352539 22.34334961 11.41352539 22.68334961 13.11352539 C21.69334961 12.78352539 20.70334961 12.45352539 19.68334961 12.11352539 C19.35334961 11.45352539 19.02334961 10.79352539 18.68334961 10.11352539 C16.37334961 10.11352539 14.06334961 10.11352539 11.68334961 10.11352539 C11.68334961 11.10352539 11.68334961 12.09352539 11.68334961 13.11352539 C5.80160725 11.53737221 1.56772991 10.09038765 -2.31665039 5.11352539 C-3.19165039 2.86352539 -3.19165039 2.86352539 -3.31665039 1.11352539 C-2.31665039 0.11352539 -2.31665039 0.11352539 0 0 Z " fill="#7D8BD8" transform="translate(85.316650390625,144.886474609375)"/>
<path d="M0 0 C7.59 0 15.18 0 23 0 C14.12217598 10.65338882 14.12217598 10.65338882 9.46484375 11.4140625 C6.8516563 11.4967821 4.55821851 11.55213349 2 11 C0 8 0 8 0 0 Z " fill="#7D8BD9" transform="translate(54,163)"/>
<path d="M0 0 C2.64 0 5.28 0 8 0 C8 6.6 8 13.2 8 20 C7.01 19.67 6.02 19.34 5 19 C4.855625 19.61875 4.71125 20.2375 4.5625 20.875 C4 23 4 23 3 25 C2.34 25 1.68 25 1 25 C-0.27861615 22.44276771 -0.11336609 20.63262898 -0.09765625 17.7734375 C-0.09443359 16.7421875 -0.09121094 15.7109375 -0.08789062 14.6484375 C-0.07951172 13.56820312 -0.07113281 12.48796875 -0.0625 11.375 C-0.05798828 10.28703125 -0.05347656 9.1990625 -0.04882812 8.078125 C-0.03701776 5.38536211 -0.02054778 2.69270812 0 0 Z " fill="#7F8DDA" transform="translate(149,145)"/>
<path d="M0 0 C5.49294392 1.46097617 9.66523739 5.78000225 13.62890625 9.69921875 C13.62890625 10.02921875 13.62890625 10.35921875 13.62890625 10.69921875 C6.36890625 10.69921875 -0.89109375 10.69921875 -8.37109375 10.69921875 C-9.37109375 3.69921875 -9.37109375 3.69921875 -8.18359375 1.80859375 C-5.37219499 0.08782382 -3.2620561 -0.06986282 0 0 Z " fill="#747EBB" transform="translate(63.37109375,144.30078125)"/>
<path d="M0 0 C2 1 2 1 4 3 C4.99 2.67 5.98 2.34 7 2 C7.125 9.75 7.125 9.75 6 12 C1.3074786 14.48427604 -3.28910151 14.55608174 -8.4375 13.5 C-8.953125 13.335 -9.46875 13.17 -10 13 C-10 11.35 -10 9.7 -10 8 C-7.36 8 -4.72 8 -2 8 C-1.66781808 4.99740483 -1.66781808 4.99740483 -3.5 3.3125 C-3.995 2.879375 -4.49 2.44625 -5 2 C-4.360625 1.855625 -3.72125 1.71125 -3.0625 1.5625 C-1.02454854 1.18992819 -1.02454854 1.18992819 0 0 Z " fill="#7E8BDA" transform="translate(218,155)"/>
<path d="M0 0 C2.949375 -0.020625 5.89875 -0.04125 8.9375 -0.0625 C9.86812256 -0.071604 10.79874512 -0.08070801 11.75756836 -0.09008789 C12.48596924 -0.09258545 13.21437012 -0.09508301 13.96484375 -0.09765625 C14.7137085 -0.10289307 15.46257324 -0.10812988 16.23413086 -0.11352539 C18 0 18 0 19 1 C19.04241723 3.33294775 19.04092937 5.66702567 19 8 C19 8.66 19 9.32 19 10 C19 12 19 14 19 16 C16.36 16 13.72 16 11 16 C11 16.66 11 17.32 11 18 C13.64 18 16.28 18 19 18 C19 20.31 19 22.62 19 25 C15.04 25 11.08 25 7 25 C11.21629134 22.89185433 13.39790775 22.82299645 18 23 C18 21.68 18 20.36 18 19 C15.36 19 12.72 19 10 19 C10 17.68 10 16.36 10 15 C13.465 14.505 13.465 14.505 17 14 C17.33 13.01 17.66 12.02 18 11 C15.69 11 13.38 11 11 11 C10.67 9.68 10.34 8.36 10 7 C11.98 6.67 13.96 6.34 16 6 C16.33 4.35 16.66 2.7 17 1 C11.72 1 6.44 1 1 1 C1.0721875 2.31355469 1.144375 3.62710938 1.21875 4.98046875 C1.31257018 6.71614204 1.40631629 8.45181934 1.5 10.1875 C1.54769531 11.05181641 1.59539062 11.91613281 1.64453125 12.80664062 C1.86278804 16.87557087 2.06752219 20.92334773 2 25 C1.34 25 0.68 25 0 25 C0 16.75 0 8.5 0 0 Z " fill="#6F7BB6" transform="translate(187,144)"/>
<path d="M0 0 C0.66 0.33 1.32 0.66 2 1 C3.0828837 5.92219866 2.9860837 10.0695815 2 15 C1 16 1 16 -1.28515625 16.09765625 C-2.65994141 16.08025391 -2.65994141 16.08025391 -4.0625 16.0625 C-4.98160156 16.05347656 -5.90070313 16.04445312 -6.84765625 16.03515625 C-7.55792969 16.02355469 -8.26820312 16.01195312 -9 16 C-11.046875 12.2578125 -11.046875 12.2578125 -10.625 9.9375 C-8.74724281 7.69863566 -7.67037046 7.43584101 -4.9375 6.5625 C-2.80533112 5.92234786 -2.80533112 5.92234786 -1 5 C0.13440778 2.42919865 0.13440778 2.42919865 0 0 Z " fill="#7E8BDB" transform="translate(109,157)"/>
<path d="M0 0 C4.05676492 -0.04954711 8.11341194 -0.085789 12.17041016 -0.10986328 C13.54967315 -0.11990253 14.92891496 -0.13353677 16.30810547 -0.15087891 C18.2938514 -0.17521754 20.2797545 -0.18543255 22.265625 -0.1953125 C24.05661621 -0.21102295 24.05661621 -0.21102295 25.88378906 -0.22705078 C28.88059296 -0.00870014 30.53589642 0.32965733 33 2 C34.20621589 4.41243177 34.12921389 5.95616605 34.1328125 8.6484375 C34.13474609 10.03289062 34.13474609 10.03289062 34.13671875 11.4453125 C34.13285156 12.41210938 34.12898438 13.37890625 34.125 14.375 C34.13080078 15.81359375 34.13080078 15.81359375 34.13671875 17.28125 C34.13542969 18.20679688 34.13414063 19.13234375 34.1328125 20.0859375 C34.13168457 20.9320459 34.13055664 21.7781543 34.12939453 22.64990234 C34.00559344 24.89841044 33.62653416 26.84290574 33 29 C32.34 28.67 31.68 28.34 31 28 C31.2784375 26.39125 31.2784375 26.39125 31.5625 24.75 C32.30033853 18.95121271 32.65760128 11.31520255 30 6 C28.68 6 27.36 6 26 6 C26 5.01 26 4.02 26 3 C26.66 3 27.32 3 28 3 C28 2.34 28 1.68 28 1 C20.08 1.33 12.16 1.66 4 2 C4 2.99 4 3.98 4 5 C2.68 4.34 1.36 3.68 0 3 C0 2.01 0 1.02 0 0 Z " fill="#747FBB" transform="translate(79,144)"/>
<path d="M0 0 C1.33157895 5.44736842 1.33157895 5.44736842 -0.125 7.875 C-2.60950005 9.36570003 -4.14489108 9.35688862 -7 9 C-7.99 8.34 -8.98 7.68 -10 7 C-10.66 7.66 -11.32 8.32 -12 9 C-14.625 9.125 -14.625 9.125 -17 9 C-16.01 8.67 -15.02 8.34 -14 8 C-14 7.34 -14 6.68 -14 6 C-12.68 5.67 -11.36 5.34 -10 5 C-9.9175 4.38125 -9.835 3.7625 -9.75 3.125 C-9 1 -9 1 -7.25 -0.3125 C-4.48679971 -1.1568112 -2.75194864 -0.76443018 0 0 Z " fill="#6A78BA" transform="translate(267,161)"/>
<path d="M0 0 C1.65 0.33 3.3 0.66 5 1 C4.979375 2.03125 4.95875 3.0625 4.9375 4.125 C4.99276661 7.55152969 5.34550715 10.64572414 6 14 C3.35261084 15.4606285 2.10551666 16 -1 16 C-1.22384382 14.27277272 -1.42839969 12.54303993 -1.625 10.8125 C-1.74101562 9.84957031 -1.85703125 8.88664063 -1.9765625 7.89453125 C-2.00194942 4.75924677 -1.34359283 2.80513465 0 0 Z M0 3 C0.33 3.99 0.66 4.98 1 6 C1.99 5.34 2.98 4.68 4 4 C4 3.34 4 2.68 4 2 C1.9254644 1.8509288 1.9254644 1.8509288 0 3 Z M2 10 C1.34 11.32 0.68 12.64 0 14 C1.65 13.34 3.3 12.68 5 12 C5 11.34 5 10.68 5 10 C4.01 10 3.02 10 2 10 Z " fill="#6974C8" transform="translate(170,149)"/>
<path d="M0 0 C0.66 1.32 1.32 2.64 2 4 C4.31 4 6.62 4 9 4 C7.68 2.68 6.36 1.36 5 0 C7.9375 0.75 7.9375 0.75 11 2 C11.875 4.125 11.875 4.125 12 6 C9.69 6.33 7.38 6.66 5 7 C4.67 8.65 4.34 10.3 4 12 C3.01 11.01 2.02 10.02 1 9 C0.01 9.495 0.01 9.495 -1 10 C-0.67 6.7 -0.34 3.4 0 0 Z " fill="#6974B6" transform="translate(225,157)"/>
<path d="M0 0 C7.59 0 15.18 0 23 0 C21.68 1.32 20.36 2.64 19 4 C19 3.01 19 2.02 19 1 C13.06 1 7.12 1 1 1 C1.33 3.64 1.66 6.28 2 9 C4.64 9.33 7.28 9.66 10 10 C10 10.33 10 10.66 10 11 C8.72125 11.061875 7.4425 11.12375 6.125 11.1875 C5.40570313 11.22230469 4.68640625 11.25710937 3.9453125 11.29296875 C3.30335937 11.19628906 2.66140625 11.09960938 2 11 C0 8 0 8 0 0 Z " fill="#6772AC" transform="translate(54,163)"/>
<path d="M0 0 C1.875 0.3125 1.875 0.3125 4 1 C6 4 6 4 6 7 C3.04335481 8.4783226 0.25770263 8.06032783 -3 8 C-2.67 6.35 -2.34 4.7 -2 3 C-1.34 3 -0.68 3 0 3 C0 2.01 0 1.02 0 0 Z " fill="#7A88D9" transform="translate(64,146)"/>
<path d="M0 0 C0.33 0 0.66 0 1 0 C1 3.63 1 7.26 1 11 C0.67 11 0.34 11 0 11 C-0.33 9.35 -0.66 7.7 -1 6 C-1.33 7.65 -1.66 9.3 -2 11 C-4.31 11 -6.62 11 -9 11 C-7.625 8.5 -7.625 8.5 -6 6 C-5.34 6 -4.68 6 -4 6 C-4 4.68 -4 3.36 -4 2 C-2.68 2 -1.36 2 0 2 C0 1.34 0 0.68 0 0 Z " fill="#717AB5" transform="translate(160,158)"/>
<path d="M0 0 C0.66 0.99 1.32 1.98 2 3 C5.56769552 3.73606499 5.56769552 3.73606499 9 4 C8.67 5.32 8.34 6.64 8 8 C5.69 8 3.38 8 1 8 C0.67 8.99 0.34 9.98 0 11 C-1.08287842 7.75136475 -0.85269793 7.12655906 0 4 C0 2.68 0 1.36 0 0 Z " fill="#7281D3" transform="translate(196,151)"/>
<path d="M0 0 C1.37478516 0.01740234 1.37478516 0.01740234 2.77734375 0.03515625 C3.69644531 0.04417969 4.61554688 0.05320313 5.5625 0.0625 C6.27277344 0.07410156 6.98304688 0.08570313 7.71484375 0.09765625 C7.71484375 0.42765625 7.71484375 0.75765625 7.71484375 1.09765625 C5.07484375 1.09765625 2.43484375 1.09765625 -0.28515625 1.09765625 C-0.28515625 1.75765625 -0.28515625 2.41765625 -0.28515625 3.09765625 C0.70484375 2.76765625 1.69484375 2.43765625 2.71484375 2.09765625 C2.71484375 5.39765625 2.71484375 8.69765625 2.71484375 12.09765625 C-0.13958203 8.2917552 -1.53888572 5.42175471 -3.28515625 1.09765625 C-2.28515625 0.09765625 -2.28515625 0.09765625 0 0 Z " fill="#7484BF" transform="translate(123.28515625,143.90234375)"/>
<path d="M0 0 C0.33 1.98 0.66 3.96 1 6 C-1.875 6.1875 -1.875 6.1875 -5 6 C-5.66 5.01 -6.32 4.02 -7 3 C-4.49955934 -0.00052879 -4.2621484 0 0 0 Z " fill="#7889D8" transform="translate(266,162)"/>
<path d="M0 0 C0.99 0 1.98 0 3 0 C3.02698189 1.62490954 3.04638757 3.24994633 3.0625 4.875 C3.07410156 5.77992188 3.08570313 6.68484375 3.09765625 7.6171875 C3 10 3 10 2 12 C1.01 12 0.02 12 -1 12 C-1.25 5.375 -1.25 5.375 1 2 C0.67 1.34 0.34 0.68 0 0 Z " fill="#5E6ABE" transform="translate(158,148)"/>
<path d="M0 0 C1.98 0 3.96 0 6 0 C5.9375 2.1875 5.9375 2.1875 5 5 C2.8282781 6.93157957 0.47398953 8.48201687 -2 10 C-2.33 8.35 -2.66 6.7 -3 5 C-0.69 4.34 1.62 3.68 4 3 C4 2.34 4 1.68 4 1 C2.68 0.67 1.36 0.34 0 0 Z " fill="#7381C9" transform="translate(67,164)"/>
<path d="M0 0 C3 1 3 1 4 3 C4.41841004 8.27196653 4.41841004 8.27196653 4 11 C2.125 13 2.125 13 0 14 C-0.66 14 -1.32 14 -2 14 C-1.67 13.01 -1.34 12.02 -1 11 C-0.01 11 0.98 11 2 11 C1.25640327 5.44946714 1.25640327 5.44946714 0 0 Z " fill="#7580C2" transform="translate(182,155)"/>
<path d="M0 0 C1.31611677 0.95336021 2.62778961 1.91285774 3.9375 2.875 C4.66839844 3.40867188 5.39929688 3.94234375 6.15234375 4.4921875 C8 6 8 6 9 8 C5.7 8 2.4 8 -1 8 C-0.67 7.34 -0.34 6.68 0 6 C0.66 6 1.32 6 2 6 C1.34 4.02 0.68 2.04 0 0 Z " fill="#5665AA" transform="translate(68,147)"/>
<path d="M0 0 C1.32 0.66 2.64 1.32 4 2 C-0.72194167 5.77755334 -5.25928072 5.30096975 -11 5 C-11 4.67 -11 4.34 -11 4 C-9.906875 3.87625 -8.81375 3.7525 -7.6875 3.625 C-4.25765951 3.0436711 -2.48850938 2.48850938 0 0 Z " fill="#757FBF" transform="translate(242,165)"/>
<path d="M0 0 C0.66 0.33 1.32 0.66 2 1 C2 3.31 2 5.62 2 8 C-0.64 8.33 -3.28 8.66 -6 9 C-6 8.01 -6 7.02 -6 6 C-4.02 5.67 -2.04 5.34 0 5 C0 3.35 0 1.7 0 0 Z " fill="#6B78C1" transform="translate(244,144)"/>
<path d="M0 0 C0.33 0.99 0.66 1.98 1 3 C1.66 3 2.32 3 3 3 C2.67 3.99 2.34 4.98 2 6 C1.34 6 0.68 6 0 6 C0 6.66 0 7.32 0 8 C-0.99 7.67 -1.98 7.34 -3 7 C-1.125 1.125 -1.125 1.125 0 0 Z " fill="#7D8CDC" transform="translate(253,161)"/>
<path d="M0 0 C2.64 0.99 5.28 1.98 8 3 C8 3.33 8 3.66 8 4 C6.8553125 4.2165625 6.8553125 4.2165625 5.6875 4.4375 C2.91827092 4.9632594 2.91827092 4.9632594 0 6 C-0.38218767 4.34385343 -0.71395102 2.67542976 -1 1 C-0.67 0.67 -0.34 0.34 0 0 Z " fill="#717BC2" transform="translate(218,148)"/>
<path d="M0 0 C1.08667969 0.02707031 2.17335937 0.05414063 3.29296875 0.08203125 C4.54013672 0.13423828 4.54013672 0.13423828 5.8125 0.1875 C5.8125 1.1775 5.8125 2.1675 5.8125 3.1875 C5.1525 3.1875 4.4925 3.1875 3.8125 3.1875 C3.8125 2.5275 3.8125 1.8675 3.8125 1.1875 C-0.56684119 1.70708285 -4.87553391 2.24425742 -9.1875 3.1875 C-6.54246503 -0.34849411 -4.24021315 -0.13678107 0 0 Z " fill="#808CC7" transform="translate(238.1875,143.8125)"/>
<path d="M0 0 C2 3 2 3 1.625 5.1875 C1.41875 5.785625 1.2125 6.38375 1 7 C-1.97 6.505 -1.97 6.505 -5 6 C-5 5.34 -5 4.68 -5 4 C-4.360625 3.71125 -3.72125 3.4225 -3.0625 3.125 C-0.84793921 2.17176549 -0.84793921 2.17176549 0 0 Z " fill="#828CDC" transform="translate(139,154)"/>
<path d="M0 0 C1.32 1.65 2.64 3.3 4 5 C3.01 5.33 2.02 5.66 1 6 C0.67 6.99 0.34 7.98 0 9 C-1 8 -1 8 -1.125 5.0625 C-1 2 -1 2 0 0 Z " fill="#7886BF" transform="translate(228,147)"/>
<path d="M0 0 C2.64 0 5.28 0 8 0 C7.01 0.680625 7.01 0.680625 6 1.375 C5.01 2.179375 5.01 2.179375 4 3 C4 3.66 4 4.32 4 5 C2.68 4.34 1.36 3.68 0 3 C0 2.01 0 1.02 0 0 Z " fill="#6673BA" transform="translate(79,144)"/>
<path d="M0 0 C1.32 0.66 2.64 1.32 4 2 C3.34 4.31 2.68 6.62 2 9 C0.4375 7.875 0.4375 7.875 -1 6 C-0.6875 2.8125 -0.6875 2.8125 0 0 Z " fill="#6877B1" transform="translate(247,160)"/>
<path d="M0 0 C2.64 0 5.28 0 8 0 C8 1.98 8 3.96 8 6 C7.4225 5.360625 6.845 4.72125 6.25 4.0625 C4.01937599 2.01776132 2.92563609 1.41794801 0 1 C0 0.67 0 0.34 0 0 Z " fill="#758AD8" transform="translate(149,145)"/>
<path d="M0 0 C1 2 1 2 0.875 4.3125 C1.02809858 7.60411947 2.16009747 9.31680881 4 12 C0.125 10.125 0.125 10.125 -1 9 C-1.1328125 7.1875 -1.1328125 7.1875 -1.125 5 C-1.12757813 4.278125 -1.13015625 3.55625 -1.1328125 2.8125 C-1 1 -1 1 0 0 Z " fill="#737CB0" transform="translate(208,147)"/>
<path d="M0 0 C1.65 0.33 3.3 0.66 5 1 C4.67 2.65 4.34 4.3 4 6 C3.34 5.67 2.68 5.34 2 5 C2.66 4.01 3.32 3.02 4 2 C2.02463255 2.34786708 2.02463255 2.34786708 0 3 C-0.33 3.66 -0.66 4.32 -1 5 C-0.67 3.35 -0.34 1.7 0 0 Z " fill="#6B79B6" transform="translate(170,149)"/>
<path d="M0 0 C0.99 0.33 1.98 0.66 3 1 C3 2.32 3 3.64 3 5 C1.02 5 -0.96 5 -3 5 C-2.01 3.35 -1.02 1.7 0 0 Z " fill="#7F88CB" transform="translate(154,164)"/>
<path d="M0 0 C-0.33 1.32 -0.66 2.64 -1 4 C-2.65 3.67 -4.3 3.34 -6 3 C-6 2.34 -6 1.68 -6 1 C-4 0 -4 0 0 0 Z " fill="#818CDA" transform="translate(62,146)"/>
<path d="M0 0 C2.97 0.495 2.97 0.495 6 1 C4.8125 2.5625 4.8125 2.5625 3 4 C0.3125 3.6875 0.3125 3.6875 -2 3 C-1.34 2.01 -0.68 1.02 0 0 Z " fill="#7A87C9" transform="translate(90,162)"/>
<path d="M0 0 C0.12375 0.639375 0.2475 1.27875 0.375 1.9375 C0.684375 2.9584375 0.684375 2.9584375 1 4 C1.66 4.33 2.32 4.66 3 5 C0.04335481 6.4783226 -2.74229737 6.06032783 -6 6 C-5.38125 5.7525 -4.7625 5.505 -4.125 5.25 C-1.64931313 3.79371361 -1.04874998 2.62187494 0 0 Z " fill="#747CBB" transform="translate(106,158)"/>
<path d="M0 0 C1.32 0 2.64 0 4 0 C3.67 1.32 3.34 2.64 3 4 C1.02 4 -0.96 4 -3 4 C-2.505 3.525625 -2.01 3.05125 -1.5 2.5625 C0.11542197 1.24076302 0.11542197 1.24076302 0 0 Z " fill="#6A7CCF" transform="translate(201,155)"/>
<path d="M0 0 C1.32 0.33 2.64 0.66 4 1 C4 2.98 4 4.96 4 7 C3.01 6.67 2.02 6.34 1 6 C1.33 4.35 1.66 2.7 2 1 C1.34 0.67 0.68 0.34 0 0 Z " fill="#818CBF" transform="translate(222,144)"/>
</svg>
